# xmcd
#
# Track frame offsets: 
#        151
#        43736
#        74225
#        107130
#        141499
#        169366
#        201882
#        234659
#
# Disc length: 4454 seconds
#
# Revision: 2
# Processed by: cddbd v1.5.1PL0 Copyright (c) Steve Scherf et al.
# Submitted via: ExactAudioCopy v0.95a3
#
DISCID=83116408
DTITLE=Nusrat Fateh Ali Khan - The Individual Legend - CD 4
DYEAR=1998
DGENRE=Qawwali
TTITLE0=Sanoo Ek Pal Chain
TTITLE1=Akhiyan No Chain
TTITLE2=Nit Khair Mangan
TTITLE3=Na Jaween Dholna
TTITLE4=Yaar Yaar Kehna
TTITLE5=Sun Charkhe Dee
TTITLE6=Ni Main Jana Jogi De Nal
TTITLE7=Tum Ek Gorakh Dhanda Ho
EXTD=
EXTT0=
EXTT1=
EXTT2=
EXTT3=
EXTT4=
EXTT5=
EXTT6=
EXTT7=
PLAYORDER=
